<?xml version="1.0" encoding="UTF-8"?>
<svg id="Capa_1" xmlns="http://www.w3.org/2000/svg" version="1.1" viewBox="0 0 1881.63 621.52">
  <!-- Generator: Adobe Illustrator 30.2.1, SVG Export Plug-In . SVG Version: 2.1.1 Build 1)  -->
  <defs>
    <style>
      .st0 {
        fill: #27348b;
      }

      .st1 {
        fill: #52ae32;
      }
    </style>
  </defs>
  <g>
    <path class="st1" d="M336.12,0s-170.55,184.25-78.42,449.65c0,0-136.21-64.08-174.81-46.66C82.9,402.99,123.77,142.24,336.12,0Z"/>
    <path class="st1" d="M341.83,39.5s-135.68,197.93-64.73,404.58c0,0,12.45-93.36,98.34-126.97,0,0-97.1-120.75-33.61-277.6h0Z"/>
    <path class="st0" d="M55.51,576.02s-48.33-122,88.49-77.18l256.33,103.32s144.41,43.57,224.07,0c0,0-85.73,29.39-308.41-85.9,0,0-260.48-123.24-307.79-85.9,0,0-37.35,41.09,47.3,145.64h0v.02Z"/>
  </g>
  <path class="st0" d="M458.34,237.93h199.09c8.64,0,12.83-4.18,12.83-9.76v-3.07c0-5.02-4.74-8.92-11.15-9.48l-156.99-12.27c-28.72-2.23-49.08-15.06-49.08-43.78v-11.71c0-29,20.91-45.73,53.26-45.73h196.31v39.04h-192.68c-7.81,0-11.99,4.74-11.99,9.48v3.62c0,4.46,3.07,9.48,10.88,10.32l161.73,12.55c26.21,1.95,44.61,16.17,44.61,44.34v10.88c0,26.21-23.42,44.61-53.26,44.61h-203.56v-39.04h0Z"/>
  <path class="st0" d="M752.81,102.14h44.89v174.83h-44.89V102.14Z"/>
  <path class="st0" d="M838.13,102.14h45.17v67.2h166.75v-67.2h44.89v174.83h-44.89v-68.32h-166.75v68.32h-45.17V102.14h0Z"/>
  <path class="st1" d="M458.4,463.24h199.09c8.64,0,12.83-4.18,12.83-9.76v-3.07c0-5.02-4.74-8.92-11.15-9.48l-156.99-12.27c-28.72-2.23-49.08-15.06-49.08-43.78v-11.71c0-29,20.91-45.73,53.26-45.73h196.31v39.04h-192.68c-7.81,0-11.99,4.74-11.99,9.48v3.62c0,4.46,3.07,9.48,10.88,10.32l161.73,12.55c26.21,1.95,44.61,16.17,44.61,44.34v10.88c0,26.21-23.42,44.61-53.26,44.61h-203.55v-39.04h0Z"/>
  <path class="st1" d="M940.24,468.26h-140.82l-24.82,34.02h-52.7l128.82-174.83h38.76l128.55,174.83h-53.26l-24.54-34.02h.01ZM911.52,428.94l-41.83-57.72-41.83,57.72h83.66Z"/>
  <path class="st1" d="M1042.3,327.44h45.17v135.8h203.28v39.04h-248.45v-174.83h0Z"/>
  <path class="st1" d="M1321.99,446.23v-118.79h44.89v110.7c0,16.17,10.04,25.1,26.21,25.1h119.9c18.68,0,27.05-7.81,27.05-25.1l-.28-110.7h44.34v118.79c0,35.14-24.82,56.05-63.58,56.05h-134.96c-37.92,0-63.58-21.47-63.58-56.05h0Z"/>
  <path class="st1" d="M1624.81,463.24h199.09c8.64,0,12.83-4.18,12.83-9.76v-3.07c0-5.02-4.74-8.92-11.15-9.48l-156.99-12.27c-28.72-2.23-49.08-15.06-49.08-43.78v-11.71c0-29,20.91-45.73,53.26-45.73h196.31v39.04h-192.68c-7.81,0-11.99,4.74-11.99,9.48v3.62c0,4.46,3.07,9.48,10.88,10.32l161.73,12.55c26.21,1.95,44.61,16.17,44.61,44.34v10.88c0,26.21-23.42,44.61-53.26,44.61h-203.55v-39.04h-.01Z"/>
</svg>