<?xml version="1.0" encoding="UTF-8"?>
<svg id="Capa_1" xmlns="http://www.w3.org/2000/svg" version="1.1" viewBox="0 0 138.4 138.4">
  <!-- Generator: Adobe Illustrator 30.2.1, SVG Export Plug-In . SVG Version: 2.1.1 Build 1)  -->
  <defs>
    <style>
      .st0 {
        fill: #052254;
      }

      .st1 {
        fill: #fffffe;
      }
    </style>
  </defs>
  <path class="st0" d="M115.46,104.26s0,0,.01-.01c0,0,0,0-.01,0h0Z"/>
  <path class="st0" d="M57.22,99.62c1.76.73,3.28,1.36,4.48,1.81l-3.37-7.87-2.6-6.06c0-.67.03-1.36.11-2.03.4-2.37,1.66-4.44,3.45-5.88,2.38,9.2,5.37,14.58,6.89,16.9.61.93.97,1.36.97,1.36l1.17.23s-.32-.6-.8-1.82c-1.08-2.79-3-8.83-3.98-18.6h.01c.78-.13,1.61-.17,2.49-.11,6.26.36,15.09,5.24,27.82,13.18,8.09,5.03,17.85,5.96,21.92-.21h5.14l-3.31,10.29c-.46,1.32-1.21,2.49-2.15,3.45,7.69-1.96,14.16-5.41,18.54-10.76,2.83-7.56,4.4-15.74,4.4-24.29C138.4,30.98,107.42,0,69.21,0S0,30.98,0,69.2c0,8.17,1.43,16,4.02,23.27,18.23-7.37,41.54,2.3,53.2,7.15ZM86.11,29.81c2.84,0,5.51.74,7.8,2.05h.01s-1.2,5.28-1.2,5.28c-3.54-2.96-7.99-4.86-12.89-5.18l-.2-.77c1.98-.88,4.18-1.37,6.48-1.37ZM59.77,53.5c2.26-1.24,4.68-2.21,7.21-2.91l.02-.08.02-.02c.78-2.24,1.75-4.4,2.86-6.46,6.17-3.38,13.24-5.31,20.78-5.31,3.81,0,7.52.49,11.04,1.42,3.91,1.03,7.61,2.59,11,4.6-2.73,4.92-4.63,10.38-5.52,16.16v.03c-.36,2.42-.55,4.9-.55,7.42,0,7.97,1.91,15.5,5.32,22.15l-.57.25c-4.41-4.83-9.93-8.62-16.14-11-1.68-4.42-2.6-9.21-2.6-14.22,0-4.51.74-8.84,2.12-12.89-4.19-1.82-8.72-2.98-13.49-3.36l-.17.52c3.92.61,7.63,1.91,10.98,3.76-2.11,4.96-3.28,10.41-3.28,16.14,0,4.95.87,9.71,2.48,14.11.08.22.15.44.24.65-10.09-7.35-19.5-11.42-26.36-11.42-2.62,0-4.86.59-6.64,1.81l.62,3.84c-.55-.95-1.05-1.93-1.47-2.95-1.17-2.82-1.81-5.9-1.81-9.14,0-4.84,1.44-9.35,3.91-13.11ZM25.64,38.47s5.62-.6,7.42-1.2c1.36-.45,2.75-.97,3.43-3.43.54-1.89,1.19-7.77,1.19-7.77h1.37s.64,5.88,1.18,7.77c.7,2.45,2.09,2.96,3.44,3.43,1.81.61,7.42,1.2,7.42,1.2v1.38s-5.38.77-7.12,1.2c-2.11.52-3.28,1.82-3.56,4.79-.46,4.9-1.32,13.28-1.32,13.28h-1.47s-.83-8.38-1.28-13.28h.01c-.3-2.97-1.48-4.27-3.59-4.79-1.75-.43-7.12-1.2-7.12-1.2v-1.38Z"/>
  <path class="st0" d="M101.9,127.3c-3.28-.53-6.47-1.29-9.62-2.2-5.6-1.67-11.05-3.79-16.33-6.33-2.6-1.28-22.09-12.77-26.83-15.68-12.3-7.54-21.66-8.47-29.12-9.34-.04.28-.14.55-.2.69,13.46,6.32,20.74,16.43,30.73,24.23,7.94,6.18,16.33,11.75,25.43,15.11,1.25.45,2.47.85,3.74,1.23,3.37.94,7.23.7,10.37.18,5.46-1.73,10.63-4.11,15.41-7.07l-.18-.42c-.78-.08-3.4-.4-3.4-.4Z"/>
  <path class="st0" d="M59.69,104.35c-.11.12-.42.56-.53.71,4.8,3.16,23.09,13.53,34.55,16.29,6.09,1.45,14.46,2.67,21.52-.49,5.14-4.58,9.6-9.91,13.19-15.82-.1-.11-.19-.23-.29-.33-23.42,11.91-59.48,2.85-68.43-.35Z"/>
  <path class="st0" d="M67.83,135.64c-16.43-7.43-29.84-22.92-36.56-28.56-9.07-7.64-17.11-11.9-25.35-9.86,10.76,24.26,35.04,41.19,63.28,41.19.76,0,1.52-.03,2.27-.06.11-.41.23-.86.25-.98-1.71-.6-2.34-.92-3.89-1.72Z"/>
  <path class="st1" d="M115.47,104.25s0,0-.01.01h0s0-.01.01-.01c.94-.96,1.69-2.13,2.15-3.45l3.31-10.29h-5.14c-4.07,6.17-13.83,5.24-21.92.21-12.73-7.94-21.57-12.81-27.82-13.18-.87-.06-1.7-.02-2.49.11h-.01c.98,9.77,2.9,15.82,3.98,18.6.48,1.23.8,1.82.8,1.82l-1.17-.23s-.36-.43-.97-1.36c-1.51-2.32-4.51-7.7-6.89-16.9-1.79,1.44-3.05,3.52-3.45,5.88-.08.67-.11,1.36-.11,2.03l2.6,6.06,3.37,7.87c-1.19-.45-2.72-1.08-4.48-1.81-11.66-4.85-34.97-14.52-53.2-7.15.57,1.61,1.21,3.18,1.9,4.73,8.24-2.04,16.28,2.23,25.35,9.86,6.72,5.65,20.13,21.14,36.56,28.56,1.55.81,2.18,1.13,3.89,1.72-.02.12-.14.57-.25.98,6.46-.21,12.7-1.29,18.6-3.15-3.14.52-7,.76-10.37-.18-1.27-.38-2.49-.77-3.74-1.23-9.1-3.36-17.49-8.93-25.43-15.11-9.99-7.8-17.27-17.91-30.73-24.23.06-.13.15-.41.2-.69,7.46.87,16.81,1.8,29.12,9.34,4.74,2.91,24.23,14.39,26.83,15.68,5.27,2.54,10.72,4.66,16.33,6.33,3.15.91,6.33,1.67,9.62,2.2,0,0,2.62.32,3.4.4l.18.42c3.46-2.13,6.71-4.57,9.73-7.26-7.06,3.16-15.44,1.94-21.52.49-11.45-2.76-29.75-13.13-34.55-16.29.11-.14.42-.59.53-.71,8.94,3.21,45,12.26,68.43.35.1.1.2.22.29.33,2.21-3.64,4.08-7.51,5.6-11.55-4.38,5.35-10.85,8.8-18.54,10.76Z"/>
  <path class="st1" d="M59.13,78.71l-.62-3.84c1.78-1.23,4.02-1.81,6.64-1.81,6.86,0,16.27,4.07,26.36,11.42-.09-.21-.17-.43-.24-.65-1.6-4.4-2.48-9.15-2.48-14.11,0-5.73,1.17-11.18,3.28-16.14-3.35-1.85-7.05-3.15-10.98-3.76l.17-.52c4.76.38,9.3,1.54,13.49,3.36-1.38,4.05-2.12,8.38-2.12,12.89,0,5.01.92,9.79,2.6,14.22,6.21,2.38,11.73,6.17,16.14,11l.57-.25c-3.4-6.65-5.32-14.18-5.32-22.15,0-2.52.19-5,.56-7.42v-.03c.87-5.78,2.77-11.24,5.51-16.16-3.39-2.01-7.09-3.57-11-4.6-3.53-.93-7.23-1.42-11.04-1.42-7.54,0-14.61,1.92-20.78,5.31-1.12,2.06-2.08,4.21-2.86,6.46l-.02.02-.02.08c-2.53.7-4.95,1.67-7.21,2.91-2.48,3.76-3.91,8.27-3.91,13.11,0,3.24.64,6.32,1.81,9.14.42,1.02.92,2,1.47,2.95Z"/>
  <path class="st1" d="M36.35,45.84h-.01c.45,4.9,1.28,13.28,1.28,13.28h1.47s.85-8.38,1.32-13.28c.28-2.96,1.45-4.27,3.56-4.79,1.74-.43,7.12-1.2,7.12-1.2v-1.38s-5.6-.6-7.42-1.2c-1.35-.46-2.74-.97-3.44-3.43-.54-1.89-1.18-7.77-1.18-7.77h-1.37s-.65,5.88-1.19,7.77c-.67,2.45-2.07,2.97-3.43,3.43-1.8.61-7.42,1.2-7.42,1.2v1.38s5.37.77,7.12,1.2c2.11.52,3.29,1.81,3.59,4.79Z"/>
  <path class="st1" d="M92.72,37.14l1.2-5.3h-.01c-2.3-1.29-4.96-2.03-7.8-2.03-2.3,0-4.5.49-6.48,1.37l.2.77c4.9.32,9.35,2.22,12.89,5.18Z"/>
</svg>