<?xml version="1.0" encoding="UTF-8"?>
<svg id="Capa_1" xmlns="http://www.w3.org/2000/svg" version="1.1" viewBox="0 0 54.71 54.71">
  <!-- Generator: Adobe Illustrator 30.2.1, SVG Export Plug-In . SVG Version: 2.1.1 Build 1)  -->
  <defs>
    <style>
      .st0 {
        fill: #eea616;
      }

      .st1 {
        fill: #009384;
      }

      .st2 {
        fill: #f26522;
      }

      .st3 {
        fill: #5b57a6;
      }
    </style>
  </defs>
  <path id="path4" class="st2" d="M14.82,14.84c3.21-3.21,7.64-5.19,12.53-5.19s9.3,1.97,12.5,5.16V3.01C36.12,1.08,31.86-.01,27.35-.01s-8.79,1.23-12.54,3.16v11.68Z"/>
  <path id="path6" class="st0" d="M39.87,39.88c-3.2,3.21-7.63,5.19-12.53,5.19s-9.3-1.97-12.51-5.16v11.8c3.74,1.93,7.99,3.02,12.51,3.02s8.77-1.09,12.52-3.02v-11.82Z"/>
  <path id="path8" class="st3" d="M14.85,39.89c-3.21-3.21-5.19-7.63-5.19-12.53s1.97-9.3,5.16-12.51H3.02C1.09,18.6,0,22.85,0,27.36s1.09,8.77,3.02,12.52h11.82Z"/>
  <path id="path10" class="st1" d="M39.86,14.81c3.21,3.2,5.19,7.64,5.19,12.53s-1.97,9.3-5.17,12.5h11.8c1.93-3.74,3.02-7.99,3.02-12.5s-1.09-8.77-3.02-12.52h-11.82Z"/>
</svg>